# File created by Blade
# Date/Time:  Tue Jan 27 19:32:37 2015
# Frame Rate: 120.000 fps
#------------------------------------------------------
:FULLY-SPECIFIED
:DEGREES
2607
root 3.730079 32.201296 -0.223419 -6.025143 -2.321384 -0.450682
Spine 0.589093 0.535087 1.391008
Head 33.545570 -47.122864 -16.151436
LeftShoulder -2.142289 -6.348455 27.073790
LeftArm -3.163980 44.842223 -102.135564
LeftForeArm 1.984331 -0.000000 13.342235
LeftHand 10.179256 -0.000000 -5.915252
LeftHandThumb1 -26.253704 0.000000 33.147579
RightShoulder -13.010997 -1.740739 -22.710118
RightArm 59.329592 70.002234 130.273697
RightForeArm 25.527324 -0.000000 131.884372
RightHand 33.819860 -0.000000 -37.393231
RightHandThumb1 -24.326973 -0.000000 -32.862282
LeftUpLeg 12.722533 3.406600 -0.870669
LeftLeg 2.780923 -0.000000 -0.000000
LeftFoot -22.405132 18.488952 -23.495379
LeftToeBase 16.147320 -0.000000 -0.000000
RightUpLeg 10.730963 -7.328172 1.457991
RightLeg 1.342326 -0.000000 -0.000000
RightFoot -13.136684 -12.107922 14.277874
RightToeBase 12.022031 -0.000000 -0.000000
2608
root 3.734235 32.200220 -0.214312 -6.037103 -2.338200 -0.452408
Spine 0.548254 0.436772 1.460827
Head 33.605197 -46.756241 -16.400177
LeftShoulder -2.140785 -6.365166 27.040655
LeftArm -3.235294 44.837330 -102.147256
LeftForeArm 2.081429 -0.000000 13.339681
LeftHand 10.225223 -0.000000 -5.933581
LeftHandThumb1 -26.253704 0.000000 33.147579
RightShoulder -13.098733 -1.552088 -22.740853
RightArm 60.656075 70.260400 131.498521
RightForeArm 26.493653 -0.000000 132.008434
RightHand 33.814247 -0.000000 -36.926037
RightHandThumb1 -24.326973 -0.000000 -32.862282
LeftUpLeg 12.756799 3.413340 -0.876182
LeftLeg 2.774262 -0.000000 -0.000000
LeftFoot -22.420983 18.484268 -23.505081
LeftToeBase 16.171779 -0.000000 -0.000000
RightUpLeg 10.754792 -7.318652 1.448323
RightLeg 1.347535 -0.000000 -0.000000
RightFoot -13.141650 -12.093442 14.272674
RightToeBase 12.000645 -0.000000 -0.000000
2609
root 3.736161 32.199687 -0.206467 -6.046451 -2.351753 -0.467987
Spine 0.510108 0.304963 1.546856
Head 33.625798 -46.375947 -16.616996
LeftShoulder -2.180923 -6.352652 26.989370
LeftArm -3.280195 44.790004 -102.107140
LeftForeArm 2.140484 -0.000000 13.376628
LeftHand 10.137017 -0.000000 -6.109445
LeftHandThumb1 -26.253704 0.000000 33.147579
RightShoulder -13.163896 -1.540572 -22.765515
RightArm 62.033703 70.348113 132.784441
RightForeArm 27.394578 0.000000 132.145059
RightHand 33.637796 0.000000 -36.763947
RightHandThumb1 -24.326973 -0.000000 -32.862282
LeftUpLeg 12.786700 3.413028 -0.863259
LeftLeg 2.767406 -0.000000 -0.000000
LeftFoot -22.440081 18.440136 -23.576087
LeftToeBase 16.053684 -0.000000 -0.000000
RightUpLeg 10.786385 -7.273713 1.463513
RightLeg 1.330175 -0.000000 -0.000000
RightFoot -13.153886 -12.104328 14.340604
RightToeBase 12.002989 -0.000000 -0.000000
2610
root 3.739677 32.198981 -0.199264 -6.060227 -2.363457 -0.464197
Spine 0.478046 0.169273 1.612297
Head 33.625123 -45.990537 -16.808404
LeftShoulder -2.217354 -6.287470 26.930546
LeftArm -3.250813 44.743299 -102.009480
LeftForeArm 2.161749 -0.000000 13.387021
LeftHand 10.205468 -0.000000 -6.109041
LeftHandThumb1 -26.253704 0.000000 33.147579
RightShoulder -13.219034 -1.594489 -22.798084
RightArm 63.489892 70.366277 134.191544
RightForeArm 28.669379 -0.000000 132.242808
RightHand 33.990627 0.000000 -36.155175
RightHandThumb1 -24.326973 -0.000000 -32.862282
LeftUpLeg 12.821183 3.386726 -0.881978
LeftLeg 2.765958 -0.000000 -0.000000
LeftFoot -22.476463 18.504633 -23.526045
LeftToeBase 16.114935 -0.000000 -0.000000
RightUpLeg 10.817890 -7.254298 1.451697
RightLeg 1.319143 -0.000000 -0.000000
RightFoot -13.167405 -12.116498 14.326397
RightToeBase 12.067563 -0.000000 -0.000000
2611
root 3.743037 32.197302 -0.191572 -6.075317 -2.387268 -0.462660
Spine 0.452890 0.089670 1.670937
Head 33.600211 -45.651172 -16.941485
LeftShoulder -2.222756 -6.270769 26.891696
LeftArm -3.261157 44.713159 -101.963052
LeftForeArm 2.083711 -0.000000 13.396319
LeftHand 10.122008 -0.000000 -5.961834
LeftHandThumb1 -26.253704 0.000000 33.147579
RightShoulder -13.271180 -1.644435 -22.846524
RightArm 64.816067 70.420755 135.514817
RightForeArm 29.795227 -0.000000 132.382833
RightHand 34.013952 0.000000 -35.740983
RightHandThumb1 -24.326973 -0.000000 -32.862282
LeftUpLeg 12.862946 3.403060 -0.886645
LeftLeg 2.737767 -0.000000 -0.000000
LeftFoot -22.461114 18.518589 -23.511482
LeftToeBase 16.130816 -0.000000 -0.000000
RightUpLeg 10.833256 -7.301364 1.428337
RightLeg 1.345530 -0.000000 -0.000000
RightFoot -13.166354 -12.044963 14.292392
RightToeBase 11.966992 -0.000000 -0.000000
